<svg width="101" height="27" viewBox="0 0 101 27" fill="none" xmlns="http://www.w3.org/2000/svg">
<path d="M9.5 16.3636H14.4091L16.1818 18.5909L19.1818 22L23.0909 26.7273H17.5L14.7273 23.5L12.8636 20.8182L9.5 16.3636ZM23.0455 13.3636C23.0455 15.9545 22.5417 18.1402 21.5341 19.9205C20.5265 21.6932 19.1667 23.0379 17.4545 23.9545C15.7424 24.8636 13.8333 25.3182 11.7273 25.3182C9.60606 25.3182 7.68939 24.8598 5.97727 23.9432C4.27273 23.0189 2.91667 21.6705 1.90909 19.8977C0.909091 18.1174 0.409091 15.9394 0.409091 13.3636C0.409091 10.7727 0.909091 8.59091 1.90909 6.81818C2.91667 5.03788 4.27273 3.69318 5.97727 2.78409C7.68939 1.86742 9.60606 1.40909 11.7273 1.40909C13.8333 1.40909 15.7424 1.86742 17.4545 2.78409C19.1667 3.69318 20.5265 5.03788 21.5341 6.81818C22.5417 8.59091 23.0455 10.7727 23.0455 13.3636ZM16.5455 13.3636C16.5455 11.9697 16.3598 10.7955 15.9886 9.84091C15.625 8.87879 15.0833 8.15151 14.3636 7.65909C13.6515 7.15909 12.7727 6.90909 11.7273 6.90909C10.6818 6.90909 9.79924 7.15909 9.07955 7.65909C8.36742 8.15151 7.82576 8.87879 7.45455 9.84091C7.09091 10.7955 6.90909 11.9697 6.90909 13.3636C6.90909 14.7576 7.09091 15.9356 7.45455 16.8977C7.82576 17.8523 8.36742 18.5795 9.07955 19.0795C9.79924 19.572 10.6818 19.8182 11.7273 19.8182C12.7727 19.8182 13.6515 19.572 14.3636 19.0795C15.0833 18.5795 15.625 17.8523 15.9886 16.8977C16.3598 15.9356 16.5455 14.7576 16.5455 13.3636ZM37.4091 17.3636V7.54545H43.6818V25H37.7273V21.6818H37.5455C37.1667 22.7955 36.5038 23.6667 35.5568 24.2955C34.6098 24.9167 33.4848 25.2273 32.1818 25.2273C30.9621 25.2273 29.8939 24.947 28.9773 24.3864C28.0682 23.8258 27.3598 23.053 26.8523 22.0682C26.3523 21.0833 26.0985 19.9545 26.0909 18.6818V7.54545H32.3636V17.3636C32.3712 18.2273 32.5909 18.9053 33.0227 19.3977C33.4621 19.8902 34.0758 20.1364 34.8636 20.1364C35.3864 20.1364 35.8371 20.0265 36.2159 19.8068C36.6023 19.5795 36.8977 19.2614 37.1023 18.8523C37.3144 18.4356 37.4167 17.9394 37.4091 17.3636ZM46.8722 25V7.54545H53.1449V25H46.8722ZM50.0085 5.72727C49.16 5.72727 48.4328 5.44697 47.8267 4.88636C47.2206 4.32576 46.9176 3.65151 46.9176 2.86364C46.9176 2.07576 47.2206 1.40151 47.8267 0.840908C48.4328 0.280303 49.16 0 50.0085 0C50.8646 0 51.5919 0.280303 52.1903 0.840908C52.7964 1.40151 53.0994 2.07576 53.0994 2.86364C53.0994 3.65151 52.7964 4.32576 52.1903 4.88636C51.5919 5.44697 50.8646 5.72727 50.0085 5.72727Z" fill="#00DFFF"/>
<path d="M56.5227 25V21.5455L64.1591 12.4091V12.3182H56.7955V7.54545H71.5682V11.3636L64.6136 20.1364V20.2273H71.8409V25H56.5227ZM80.1733 25.2727C79.0597 25.2727 78.0748 25.0909 77.2188 24.7273C76.3703 24.3561 75.7036 23.7955 75.2188 23.0455C74.7339 22.2955 74.4915 21.3409 74.4915 20.1818C74.4915 19.2273 74.6544 18.4129 74.9801 17.7386C75.3059 17.0568 75.7604 16.5 76.3438 16.0682C76.9271 15.6364 77.6051 15.3068 78.3778 15.0795C79.1581 14.8523 79.9991 14.7045 80.9006 14.6364C81.8778 14.5606 82.6619 14.4697 83.2528 14.3636C83.8513 14.25 84.2831 14.0947 84.5483 13.8977C84.8134 13.6932 84.946 13.4242 84.946 13.0909V13.0455C84.946 12.5909 84.7718 12.2424 84.4233 12C84.0748 11.7576 83.6278 11.6364 83.0824 11.6364C82.4839 11.6364 81.9953 11.7689 81.6165 12.0341C81.2453 12.2917 81.0218 12.6894 80.946 13.2273H75.1733C75.2491 12.1667 75.5862 11.1894 76.1847 10.2955C76.7907 9.39394 77.6733 8.67424 78.8324 8.13636C79.9915 7.59091 81.4384 7.31818 83.1733 7.31818C84.4233 7.31818 85.5445 7.46591 86.5369 7.76136C87.5294 8.04924 88.3741 8.45455 89.071 8.97727C89.768 9.49242 90.2983 10.0985 90.6619 10.7955C91.0331 11.4848 91.2188 12.2348 91.2188 13.0455V25H85.3551V22.5455H85.2188C84.8703 23.197 84.446 23.7235 83.946 24.125C83.4536 24.5265 82.8892 24.8182 82.2528 25C81.6241 25.1818 80.9309 25.2727 80.1733 25.2727ZM82.2188 21.3182C82.696 21.3182 83.143 21.2197 83.5597 21.0227C83.9839 20.8258 84.3286 20.5417 84.5938 20.1705C84.8589 19.7992 84.9915 19.3485 84.9915 18.8182V17.3636C84.8248 17.4318 84.6468 17.4962 84.4574 17.5568C84.2756 17.6174 84.0786 17.6742 83.8665 17.7273C83.6619 17.7803 83.4422 17.8295 83.2074 17.875C82.9801 17.9205 82.7415 17.9621 82.4915 18C82.0066 18.0758 81.6089 18.2008 81.2983 18.375C80.9953 18.5417 80.768 18.75 80.6165 19C80.4725 19.2424 80.4006 19.5152 80.4006 19.8182C80.4006 20.303 80.571 20.6742 80.9119 20.9318C81.2528 21.1894 81.6884 21.3182 82.2188 21.3182ZM94.2159 25V7.54545H100.489V25H94.2159ZM97.3523 5.72727C96.5038 5.72727 95.7765 5.44697 95.1705 4.88636C94.5644 4.32576 94.2614 3.65151 94.2614 2.86364C94.2614 2.07576 94.5644 1.40151 95.1705 0.840908C95.7765 0.280303 96.5038 0 97.3523 0C98.2083 0 98.9356 0.280303 99.5341 0.840908C100.14 1.40151 100.443 2.07576 100.443 2.86364C100.443 3.65151 100.14 4.32576 99.5341 4.88636C98.9356 5.44697 98.2083 5.72727 97.3523 5.72727Z" fill="#C1F3FD"/>
</svg>
